<svg width="36" height="32" viewBox="0 0 36 32" fill="none" xmlns="http://www.w3.org/2000/svg">
<g clip-path="url(#clip0_111_71)">
<path d="M19.3124 6.625C20.0249 6.1875 20.4999 5.39375 20.4999 4.5C20.4999 3.11875 19.3812 2 17.9999 2C16.6187 2 15.4999 3.11875 15.4999 4.5C15.4999 5.4 15.9749 6.1875 16.6874 6.625L13.1062 13.7875C12.5374 14.925 11.0624 15.25 10.0687 14.4563L4.49994 10C4.81244 9.58125 4.99994 9.0625 4.99994 8.5C4.99994 7.11875 3.88119 6 2.49994 6C1.11869 6 -6.10352e-05 7.11875 -6.10352e-05 8.5C-6.10352e-05 9.88125 1.11869 11 2.49994 11C2.51244 11 2.53119 11 2.54369 11L5.39994 26.7125C5.74369 28.6125 7.39994 30 9.33744 30H26.6624C28.5937 30 30.2499 28.6187 30.5999 26.7125L33.4562 11C33.4687 11 33.4874 11 33.4999 11C34.8812 11 35.9999 9.88125 35.9999 8.5C35.9999 7.11875 34.8812 6 33.4999 6C32.1187 6 30.9999 7.11875 30.9999 8.5C30.9999 9.0625 31.1874 9.58125 31.4999 10L25.9312 14.4563C24.9374 15.25 23.4624 14.925 22.8937 13.7875L19.3124 6.625Z" fill="#FCD612"/>
</g>
<defs>
<clipPath id="clip0_111_71">
<rect width="36" height="32" fill="white"/>
</clipPath>
</defs>
</svg>
