<svg width="57" height="56" viewBox="0 0 57 56" fill="none" xmlns="http://www.w3.org/2000/svg">
<rect x="0.5" width="56" height="56" rx="16" fill="#1E2235"/>
<g clip-path="url(#clip0_13_5180)">
<path d="M28.5 44C37.3366 44 44.5 36.8366 44.5 28C44.5 19.1634 37.3366 12 28.5 12C19.6634 12 12.5 19.1634 12.5 28C12.5 36.8366 19.6634 44 28.5 44Z" fill="#7D2AE7"/>
<path d="M28.5 44C37.3366 44 44.5 36.8366 44.5 28C44.5 19.1634 37.3366 12 28.5 12C19.6634 12 12.5 19.1634 12.5 28C12.5 36.8366 19.6634 44 28.5 44Z" fill="url(#paint0_radial_13_5180)"/>
<path d="M28.5 44C37.3366 44 44.5 36.8366 44.5 28C44.5 19.1634 37.3366 12 28.5 12C19.6634 12 12.5 19.1634 12.5 28C12.5 36.8366 19.6634 44 28.5 44Z" fill="url(#paint1_radial_13_5180)"/>
<path d="M28.5 44C37.3366 44 44.5 36.8366 44.5 28C44.5 19.1634 37.3366 12 28.5 12C19.6634 12 12.5 19.1634 12.5 28C12.5 36.8366 19.6634 44 28.5 44Z" fill="url(#paint2_radial_13_5180)"/>
<path d="M28.5 44C37.3366 44 44.5 36.8366 44.5 28C44.5 19.1634 37.3366 12 28.5 12C19.6634 12 12.5 19.1634 12.5 28C12.5 36.8366 19.6634 44 28.5 44Z" fill="url(#paint3_radial_13_5180)"/>
<path d="M35.4076 31.2822C35.2755 31.2822 35.1593 31.3937 35.0384 31.6372C33.6728 34.4062 31.3143 36.3654 28.5849 36.3654C25.4291 36.3654 23.4747 33.5166 23.4747 29.5809C23.4747 22.9143 27.1892 19.0597 30.4518 19.0597C31.9763 19.0597 32.9074 20.0178 32.9074 21.5424C32.9074 23.3519 31.8793 24.31 31.8793 24.9482C31.8793 25.2346 32.0575 25.4081 32.4109 25.4081C33.8305 25.4081 35.4967 23.7769 35.4967 21.4724C35.4967 19.238 33.5519 17.5956 30.2894 17.5956C24.8975 17.5956 20.1056 22.5944 20.1056 29.5109C20.1056 34.8646 23.1628 38.4025 27.8799 38.4025C32.8866 38.4025 35.7816 33.4211 35.7816 31.8043C35.7816 31.4462 35.5986 31.2822 35.4076 31.2822Z" fill="white"/>
</g>
<defs>
<radialGradient id="paint0_radial_13_5180" cx="0" cy="0" r="1" gradientUnits="userSpaceOnUse" gradientTransform="translate(18.6812 40.3623) rotate(-49.416) scale(24.7493)">
<stop stop-color="#6420FF"/>
<stop offset="1" stop-color="#6420FF" stop-opacity="0"/>
</radialGradient>
<radialGradient id="paint1_radial_13_5180" cx="0" cy="0" r="1" gradientUnits="userSpaceOnUse" gradientTransform="translate(20.9715 15.6378) rotate(54.703) scale(27.9094)">
<stop stop-color="#00C4CC"/>
<stop offset="1" stop-color="#00C4CC" stop-opacity="0"/>
</radialGradient>
<radialGradient id="paint2_radial_13_5180" cx="0" cy="0" r="1" gradientUnits="userSpaceOnUse" gradientTransform="translate(18.6811 40.3621) rotate(-45.1954) scale(24.4497 11.2447)">
<stop stop-color="#6420FF"/>
<stop offset="1" stop-color="#6420FF" stop-opacity="0"/>
</radialGradient>
<radialGradient id="paint3_radial_13_5180" cx="0" cy="0" r="1" gradientUnits="userSpaceOnUse" gradientTransform="translate(25.5863 16.3116) rotate(66.5198) scale(25.1934 42.2046)">
<stop stop-color="#00C4CC" stop-opacity="0.725916"/>
<stop offset="0.0001" stop-color="#00C4CC"/>
<stop offset="1" stop-color="#00C4CC" stop-opacity="0"/>
</radialGradient>
<clipPath id="clip0_13_5180">
<rect width="32" height="32" fill="white" transform="translate(12.5 12)"/>
</clipPath>
</defs>
</svg>
