<svg width="57" height="56" viewBox="0 0 57 56" fill="none" xmlns="http://www.w3.org/2000/svg">
<g clip-path="url(#clip0_38_162)">
<path d="M28.8091 36.5427H29.5525C30.0817 36.5427 30.58 36.2958 30.9001 35.8743L35.6156 29.6707L40.3312 35.8743C40.6512 36.2952 41.1495 36.5427 41.6787 36.5427H42.4221L36.4063 28.6299L42.1525 21.0699H41.4091C40.8799 21.0699 40.3816 21.3169 40.0615 21.7384L35.615 27.5886L31.1678 21.7377C30.8478 21.3169 30.3494 21.0699 29.8202 21.0699H29.0768L34.8231 28.6299L28.8091 36.5427Z" fill="white"/>
<path d="M28.9999 29.26V27.37C28.9999 23.1647 25.2545 19.8346 20.9176 20.5332C17.5415 21.0769 15.1399 24.1299 15.1399 27.5489V28V29.26V29.3494C15.1399 33.4778 18.1494 36.7746 21.9867 36.82C25.1947 36.8578 27.9018 34.7133 28.7321 31.7806H28.0845C27.6939 31.7806 27.3398 32.0043 27.1704 32.3558C26.0748 34.6207 23.5233 36.0489 20.7267 35.4063C18.1488 34.8134 16.3999 32.398 16.3999 29.7533V29.26H28.9999ZM16.3999 27.8173C16.3999 24.8512 18.1664 22.4264 20.762 21.8461C24.4626 21.0196 27.7399 23.8117 27.7399 27.37V28H16.3999V27.8173Z" fill="white"/>
</g>
<defs>
<clipPath id="clip0_38_162">
<rect width="36" height="36" fill="white" transform="translate(11 10)"/>
</clipPath>
</defs>
</svg>
