<svg width="56" height="56" viewBox="0 0 56 56" fill="none" xmlns="http://www.w3.org/2000/svg">
<rect width="56" height="56" rx="16" fill="#1E2235"/>
<g clip-path="url(#clip0_288_111)">
<path fill-rule="evenodd" clip-rule="evenodd" d="M30.8414 12.0622C30.6108 12.0622 30.3954 12.1114 30.1988 12.1756C30.6203 12.4591 30.8508 12.8276 30.968 13.249C30.9755 13.3057 30.9925 13.3473 31.0001 13.4059C31.0077 13.4645 31.019 13.5042 31.019 13.5571C31.053 14.2847 30.83 14.3754 30.6713 14.8043C30.4313 15.3581 30.4974 15.9533 30.7847 16.4296C30.811 16.4933 30.8439 16.5541 30.8829 16.611C30.5692 14.5209 32.3135 14.2053 32.6348 13.5533C32.6594 12.9826 32.1888 12.6027 31.8165 12.3382C31.4612 12.1227 31.1362 12.0547 30.8414 12.0547V12.0622ZM33.4682 12.5347C33.4342 12.7237 33.4606 12.6745 33.4493 12.7747L33.4304 12.9901L33.3737 13.1886C33.3548 13.2547 33.3321 13.3209 33.3076 13.387L33.2168 13.576C33.1923 13.61 33.1753 13.6421 33.1507 13.6742L33.1016 13.7498L32.9768 13.9143C32.9277 13.9634 32.8861 14.022 32.8257 14.0654C32.7652 14.1089 32.7274 14.1637 32.6688 14.2053C32.4949 14.3376 32.2965 14.4358 32.1151 14.5606C32.0584 14.6021 32.0017 14.6362 31.9507 14.6853C31.8947 14.7249 31.8423 14.7691 31.7938 14.8176C31.7371 14.8667 31.6956 14.9158 31.6426 14.9744C31.5897 15.033 31.5519 15.0821 31.5179 15.1388L31.4045 15.3127L31.3138 15.5017L31.2477 15.6907L31.191 15.8985C31.1834 15.9326 31.1834 15.9741 31.1721 16.0063C31.1607 16.0384 31.1645 16.0724 31.1532 16.1045L31.1456 16.3124C31.1456 16.3615 31.1456 16.4107 31.1532 16.4636C31.1532 16.5297 31.1607 16.5959 31.1777 16.6715C31.1948 16.7471 31.2023 16.8038 31.2193 16.8699L31.2855 17.0683C31.3044 17.1099 31.327 17.1515 31.3422 17.1817L29.441 16.4447L28.4829 16.199L27.9613 16.0743C27.4639 15.9751 26.9618 15.9007 26.457 15.8513C26.4381 15.8513 26.4325 15.8437 26.4154 15.8437L24.9357 15.7681L23.8529 15.8097C23.3483 15.8437 22.8437 15.908 22.341 15.9911L21.9687 16.0573L21.2242 16.2217L20.8519 16.32L20.4966 16.4768L20.2245 16.6015C20.2056 16.6091 20.1904 16.6091 20.1829 16.6204L19.9523 16.7338C19.9278 16.7414 19.9108 16.7527 19.8956 16.7584L19.6386 16.8907C19.5819 16.9153 19.5252 16.9474 19.4742 16.9738C19.4496 16.9927 19.4175 17.006 19.3986 17.0154L19.1832 17.1401C19.1147 17.178 19.0485 17.2196 18.9848 17.2649L18.8203 17.3783L18.6389 17.5105L18.4991 17.6239C18.4802 17.6315 18.4651 17.6485 18.4499 17.6579L18.3252 17.7657C18.3177 17.7846 18.3006 17.7902 18.2912 17.7997L18.14 17.9395L17.9756 18.0964L17.8358 18.2476C17.8169 18.2665 17.7942 18.2816 17.7791 18.2967C17.7347 18.3485 17.688 18.3983 17.6392 18.446C17.6317 18.4649 17.6146 18.4706 17.6052 18.4876L17.4162 18.686L16.9702 19.115C16.819 19.2473 16.6641 19.372 16.5072 19.4778L16.0121 19.7915C15.8477 19.8822 15.6719 19.9654 15.4905 20.0372C15.3149 20.1119 15.1358 20.1781 14.9538 20.2356C14.6061 20.3112 14.2508 20.4511 13.9447 20.4756C13.8785 20.4756 13.8048 20.4945 13.7368 20.5002L13.5289 20.5493L13.3305 20.6249C13.2628 20.6517 13.1966 20.682 13.132 20.7156C13.0753 20.7572 13.0073 20.7912 12.9506 20.829C12.8939 20.8668 12.8372 20.9197 12.7862 20.9689C12.7352 21.018 12.6728 21.0671 12.6218 21.1201L12.4819 21.2845C12.4404 21.3506 12.3912 21.4092 12.3572 21.4735C12.314 21.534 12.2754 21.5978 12.2419 21.6643L12.1512 21.8798L12.0756 22.0952L12.0341 22.2936C12.0095 22.3919 12.0095 22.4921 12 22.5393C11.9906 22.5865 12 22.6489 12 22.7075C11.9984 22.7436 12.001 22.7797 12.0076 22.8152C12.0152 22.8719 12.0265 22.9229 12.0416 22.9721L12.0983 23.1233C12.1229 23.1799 12.155 23.231 12.189 23.2801L12.2967 23.4313L12.4366 23.5636C12.485 23.612 12.5375 23.6563 12.5934 23.6959C12.7919 23.8697 12.8391 23.9264 13.098 24.0587C13.1396 24.0833 13.1812 24.1003 13.2303 24.1248C13.2549 24.1494 13.2549 24.157 13.2643 24.174C13.2719 24.2401 13.2889 24.3063 13.3059 24.3724C13.3217 24.4405 13.3438 24.5069 13.372 24.5708L13.4382 24.722C13.4457 24.7409 13.4571 24.756 13.4628 24.7636L13.561 24.945L13.6858 25.1189L13.8256 25.2757C13.8747 25.3249 13.9239 25.3664 13.9825 25.4156L14.1469 25.5403C14.2036 25.5819 14.2603 25.6159 14.3283 25.648C14.3894 25.6832 14.4532 25.7136 14.5192 25.7387C14.5683 25.7633 14.6269 25.7803 14.6836 25.7954C14.7403 25.8105 14.7913 25.8294 14.8234 25.837C14.7988 26.283 14.7894 26.7063 14.8574 26.8537C14.933 27.0181 15.2959 26.5136 15.6587 25.9372C15.6096 26.5079 15.5756 27.1769 15.6587 27.3734C15.7419 27.57 16.2445 26.935 16.6754 26.2244C22.5338 24.8694 27.8819 28.9193 28.4432 34.6378C28.3355 33.7458 27.2375 33.2488 26.7329 33.3716C26.4873 33.9839 26.0639 34.7701 25.3855 35.2558C25.4422 34.7077 25.4176 34.1484 25.3024 33.6022C25.1175 34.363 24.7678 35.0739 24.2781 35.6848C23.4938 35.7415 22.7096 35.3635 22.2938 34.7928C22.2598 34.7682 22.2522 34.7172 22.2277 34.6851L22.1615 34.5112C22.1369 34.4545 22.1199 34.3978 22.1124 34.3373C22.1048 34.2769 22.1048 34.2239 22.1048 34.1559V34.0312C22.1124 33.9745 22.1294 33.9178 22.1464 33.8573L22.2031 33.6835C22.2371 33.6268 22.2598 33.5701 22.3014 33.5096C22.4412 33.1316 22.4412 32.7915 22.188 32.6025C22.1388 32.5685 22.0897 32.5458 22.0311 32.5193C21.9971 32.5118 21.9555 32.4948 21.9234 32.4853L21.8573 32.4608L21.6834 32.4192C21.6269 32.4028 21.5683 32.3946 21.5095 32.3946C21.4495 32.3848 21.3889 32.3792 21.3281 32.3776C21.2865 32.3776 21.245 32.3852 21.2034 32.3852C21.142 32.3847 21.0809 32.3929 21.022 32.4097L20.8481 32.4419L20.6742 32.4986L20.5098 32.5741L20.353 32.6573C18.4254 33.914 19.5782 36.8527 20.8897 37.7068C20.3945 37.7976 19.8881 37.9053 19.7501 38.013C20.0903 38.2436 20.4607 38.4288 20.85 38.5837L22.188 38.9617C22.874 39.1129 23.5675 39.1601 24.2705 39.1185C26.0563 38.9878 27.7439 38.2513 29.0542 37.0311C30.3645 35.8108 31.219 34.1798 31.4763 32.4078L31.5255 32.6233L31.6011 33.0863L31.6351 33.3093L31.654 33.555L31.6729 33.8271V33.9594C31.6729 34.0009 31.6804 34.0501 31.6804 34.0917C31.6804 34.1332 31.6729 34.1899 31.6729 34.2428V34.3562C31.6729 34.4129 31.6653 34.4639 31.6653 34.5206C31.6653 34.5528 31.6653 34.5868 31.6578 34.6284L31.6502 34.8098C31.6426 34.8343 31.6426 34.8589 31.6426 34.8854L31.6181 35.0744C31.6181 35.0989 31.6181 35.1235 31.6105 35.1499L31.5784 35.3899V35.4088L31.5293 35.6394L31.4801 35.8851L31.414 36.1421L31.3478 36.3991L31.2647 36.6637L31.0833 37.1437L30.985 37.3837L30.8716 37.6142C30.864 37.6388 30.8527 37.6558 30.847 37.6709C30.2933 38.7784 29.4996 39.7308 28.5075 40.4716C28.4413 40.5132 28.3752 40.5623 28.309 40.6115C28.2901 40.6304 28.2675 40.636 28.2523 40.653L28.0709 40.7778L28.0955 40.8269H28.103L28.4508 40.7778H28.4583L29.1009 40.6644C29.1576 40.6568 29.2256 40.6398 29.2823 40.6228L29.3957 40.5982L29.5695 40.5661L29.7207 40.5245C30.5466 40.3261 31.3459 40.0521 32.117 39.7308C30.8036 41.5261 29.0423 42.9699 26.9843 43.9205C27.9348 43.8544 28.8854 43.6975 29.8001 43.4329C33.1299 42.4502 35.9325 40.2108 37.6106 37.1928C37.2704 39.1063 36.5115 40.9209 35.3882 42.5069C36.1895 41.9778 36.9246 41.3674 37.5955 40.6738C39.4452 38.7425 40.6593 36.2912 41.0746 33.6494C41.3581 34.9534 41.4375 36.3027 41.3146 37.6331C47.2807 29.3105 41.8098 20.6816 39.5193 18.4101C39.5118 18.3912 39.5004 18.3855 39.5004 18.3685C39.4815 18.4668 39.4759 18.5669 39.4683 18.6652C39.4437 18.8542 39.4192 19.0375 39.3852 19.2189C39.3511 19.4003 39.2944 19.5818 39.2453 19.767C39.1962 19.9522 39.1206 20.1222 39.0469 20.2961C38.9732 20.47 38.89 20.6363 38.8012 20.8007C38.7101 20.9623 38.6111 21.1194 38.5045 21.2712C38.3968 21.4281 38.2815 21.5774 38.1643 21.7172C38.041 21.8611 37.9111 21.9992 37.775 22.1311C37.6919 22.2067 37.6182 22.271 37.535 22.339L37.3461 22.5034C37.1985 22.6205 37.0438 22.7284 36.8831 22.8266C36.7252 22.9284 36.5625 23.0223 36.3955 23.1081C36.2216 23.1913 36.0478 23.265 35.8739 23.3387C35.6979 23.4053 35.5188 23.4633 35.3372 23.5126C35.1558 23.5617 34.9649 23.6033 34.7835 23.6373C34.6021 23.6713 34.4055 23.6864 34.2222 23.7034C34.0899 23.711 33.9576 23.7223 33.8443 23.7223C33.6553 23.7223 33.4663 23.7034 33.283 23.6883C33.0997 23.6732 32.905 23.6467 32.7198 23.6052C32.5323 23.5712 32.3473 23.5245 32.1661 23.4653H32.1586C32.34 23.4464 32.5214 23.4313 32.7066 23.3992C32.8918 23.367 33.0789 23.3236 33.2603 23.2744C33.4417 23.2253 33.6232 23.1667 33.797 23.1006C33.9709 23.0344 34.1523 22.9494 34.3186 22.87C34.488 22.7874 34.6532 22.6966 34.8137 22.5979C34.9706 22.4902 35.1274 22.3825 35.2767 22.2672C35.4248 22.1519 35.5655 22.0276 35.6982 21.8949C35.838 21.7702 35.9627 21.6303 36.0875 21.4905C36.2122 21.3506 36.3275 21.1938 36.4352 21.0445C36.4541 21.0199 36.4692 20.9878 36.4843 20.9613L36.7243 20.5834C36.815 20.4189 36.8982 20.2526 36.97 20.0788C37.0418 19.9049 37.1098 19.7311 37.1684 19.5496C37.227 19.3682 37.2667 19.1944 37.3083 19.0129C37.3498 18.8315 37.3744 18.6406 37.3914 18.4592C37.4084 18.2778 37.4235 18.0813 37.4235 17.898C37.4235 17.7657 37.416 17.6334 37.4046 17.52C37.3857 17.331 37.3631 17.1477 37.3385 16.9663C37.3056 16.7799 37.264 16.5951 37.2138 16.4126C37.1571 16.2387 37.1004 16.0573 37.0324 15.8834C36.9643 15.7096 36.8812 15.5357 36.8018 15.3732C36.7224 15.2107 36.6204 15.0425 36.5183 14.8856C36.4163 14.7288 36.3029 14.5795 36.1876 14.4321L35.8097 14.0106C35.7398 13.9399 35.668 13.8712 35.5942 13.8046C35.2239 13.5168 34.8405 13.2463 34.4452 12.9939C34.3885 12.9618 34.3375 12.9372 34.2808 12.9108C34.0087 12.7369 33.7517 12.6462 33.4965 12.563L33.4682 12.5347Z" fill="#EA2845"/>
</g>
<defs>
<clipPath id="clip0_288_111">
<rect width="32" height="32" fill="white" transform="translate(12 12)"/>
</clipPath>
</defs>
</svg>
