<svg width="51" height="50" viewBox="0 0 51 50" fill="none" xmlns="http://www.w3.org/2000/svg">
<path d="M25.5 4.6875C14.3 4.6875 5.1875 13.8 5.1875 25C5.1875 36.2 14.3 45.3125 25.5 45.3125C36.7 45.3125 45.8125 36.2 45.8125 25C45.8125 13.8 36.7 4.6875 25.5 4.6875ZM25.5 7.8125C34.9766 7.8125 42.6875 15.5234 42.6875 25C42.6875 34.4766 34.9766 42.1875 25.5 42.1875C16.0234 42.1875 8.3125 34.4766 8.3125 25C8.3125 15.5234 16.0234 7.8125 25.5 7.8125ZM32.1742 15.744C32.0601 15.7471 28.2471 15.5338 26.0096 22.0947C25.4034 21.5963 22.5319 18.1726 19.3538 20.5414C18.2131 21.3945 17.4596 23.4278 19.1737 25.3387C20.194 26.4309 20.7822 26.864 20.5134 27.7374C19.9619 29.5312 17.1684 28.7089 17.4434 27.8198C17.5246 27.5542 17.6546 27.5497 17.8218 27.0325C18.2874 25.5075 16.189 24.7615 15.7374 26.2146C15.4781 27.0615 15.8804 28.5915 18.0476 29.2603C20.5851 30.0399 22.7325 28.657 23.0372 26.8555C23.231 25.7273 22.7204 24.8895 21.786 23.8098L21.0261 22.9675C20.5652 22.5035 20.4061 21.7197 20.8827 21.1182C21.2843 20.6088 21.8571 20.3935 22.7961 20.6482C24.1665 21.0201 24.7773 21.9715 25.796 22.7386C25.7226 22.9793 25.1942 24.6843 24.7004 27.6733C23.9723 31.4952 23.4144 33.593 21.9691 34.7961C21.6785 35.0071 21.2621 35.3175 20.6355 35.3394C20.5183 35.344 19.7853 35.1699 20.5134 34.5856C21.4306 34.084 20.9334 32.4925 19.6162 32.5378C19.0225 32.5566 18.12 33.1135 18.1544 34.137C18.1888 35.1932 19.1725 35.986 20.6569 35.9344C21.4506 35.9079 23.2206 35.5864 24.9659 33.5114C27.3644 30.6989 27.8209 27.3591 28.4694 23.7762C31.5803 24.145 33.1197 22.7028 33.1416 21.6278C33.1744 20.1653 31.4535 20.2167 31.2129 21.3104C31.0973 21.8417 32.0233 22.3203 31.3014 22.7875C30.7905 23.1187 29.8729 23.3519 28.5823 23.1628C29.2026 19.741 29.7331 16.3867 32.1284 16.3086C32.2925 16.2992 32.8895 16.3177 32.9036 16.7114C32.9114 17.0364 32.4943 17.2936 32.5099 17.8467C32.5333 18.4748 33.0094 18.8849 33.7001 18.8599C34.6235 18.827 34.8876 17.9308 34.8719 17.4683C34.8329 16.3808 33.6883 15.6956 32.1742 15.744Z" fill="white"/>
</svg>
