<svg width="56" height="56" viewBox="0 0 56 56" fill="none" xmlns="http://www.w3.org/2000/svg">
<rect width="56" height="56" rx="16" fill="#1E2235"/>
<g clip-path="url(#clip0_288_71)">
<path d="M40.875 12H15.125C13.3991 12 12 13.3991 12 15.125V40.875C12 42.6009 13.3991 44 15.125 44H40.875C42.6009 44 44 42.6009 44 40.875V15.125C44 13.3991 42.6009 12 40.875 12Z" fill="#3178C6"/>
<path d="M40.875 12H15.125C13.3991 12 12 13.3991 12 15.125V40.875C12 42.6009 13.3991 44 15.125 44H40.875C42.6009 44 44 42.6009 44 40.875V15.125C44 13.3991 42.6009 12 40.875 12Z" fill="#3178C6"/>
<path fill-rule="evenodd" clip-rule="evenodd" d="M31.8087 37.464V40.5928C32.3173 40.8536 32.9189 41.0491 33.6134 41.1794C34.3079 41.3098 35.0398 41.375 35.8093 41.375C36.5593 41.375 37.2716 41.3033 37.9466 41.1599C38.6215 41.0165 39.2133 40.7802 39.7219 40.451C40.2306 40.1219 40.6332 39.6916 40.9299 39.1604C41.2266 38.6291 41.375 37.9724 41.375 37.1903C41.375 36.6231 41.2902 36.1261 41.1207 35.6992C40.9511 35.2723 40.7066 34.8926 40.3871 34.5601C40.0676 34.2277 39.6844 33.9294 39.2377 33.6654C38.7911 33.4014 38.2873 33.1521 37.7265 32.9175C37.3157 32.748 36.9472 32.5834 36.6212 32.4237C36.2951 32.264 36.018 32.1011 35.7897 31.9349C35.5615 31.7686 35.3854 31.5926 35.2616 31.4069C35.1377 31.2211 35.0757 31.0109 35.0757 30.7762C35.0757 30.5611 35.1311 30.3672 35.242 30.1944C35.3529 30.0217 35.5094 29.8734 35.7115 29.7496C35.9137 29.6258 36.1614 29.5296 36.4549 29.4611C36.7484 29.3927 37.0744 29.3585 37.4331 29.3585C37.6939 29.3585 37.9694 29.3781 38.2596 29.4171C38.5498 29.4563 38.8416 29.5166 39.1351 29.598C39.4285 29.6795 39.7138 29.7822 39.9909 29.906C40.2681 30.0299 40.524 30.1733 40.7588 30.3363V27.4128C40.2828 27.2303 39.7627 27.095 39.1986 27.007C38.6346 26.919 37.9873 26.875 37.257 26.875C36.5136 26.875 35.8093 26.9549 35.1442 27.1146C34.4791 27.2742 33.8938 27.5236 33.3884 27.8625C32.883 28.2015 32.4836 28.6333 32.1902 29.1581C31.8967 29.6827 31.75 30.3101 31.75 31.0402C31.75 31.9723 32.019 32.7676 32.557 33.4259C33.0949 34.0843 33.9117 34.6416 35.0072 35.0979C35.4376 35.2739 35.8387 35.4466 36.2104 35.6161C36.5821 35.7856 36.9033 35.9616 37.1738 36.1441C37.4444 36.3266 37.658 36.5254 37.8146 36.7405C37.9711 36.9556 38.0493 37.2 38.0493 37.4738C38.0493 37.6759 38.0004 37.8632 37.9026 38.036C37.8048 38.2087 37.6564 38.3586 37.4575 38.4858C37.2586 38.6129 37.0108 38.7122 36.7141 38.7839C36.4174 38.8557 36.0702 38.8915 35.6724 38.8915C34.9942 38.8915 34.3226 38.7726 33.6574 38.5346C32.9923 38.2967 32.376 37.9399 31.8087 37.464ZM26.5487 29.7551H30.5625V27.1875H19.375V29.7551H23.3691V41.1875H26.5487V29.7551Z" fill="white"/>
</g>
<defs>
<clipPath id="clip0_288_71">
<rect width="32" height="32" fill="white" transform="translate(12 12)"/>
</clipPath>
</defs>
</svg>
