<svg width="57" height="56" viewBox="0 0 57 56" fill="none" xmlns="http://www.w3.org/2000/svg">
<rect x="0.5" width="56" height="56" rx="16" fill="#1E2235"/>
<g clip-path="url(#clip0_13_5172)">
<path d="M48.5 28.0079C48.5 16.9724 39.5457 8.02637 28.5 8.02637C17.4543 8.02637 8.5 16.9724 8.5 28.0079C8.5 39.0433 17.4543 47.9894 28.5 47.9894C39.5457 47.9894 48.5 39.0433 48.5 28.0079Z" fill="#146EF5"/>
<path fill-rule="evenodd" clip-rule="evenodd" d="M41.7709 20.7922L33.8136 36.3334H26.3396L29.6696 29.8925H29.5202C26.7729 33.4555 22.6739 35.8011 16.8334 36.3334V29.9816C16.8334 29.9816 20.5697 29.7611 22.7662 27.454H16.8334V20.7923H23.5012V26.2715L23.6509 26.2708L26.3756 20.7923H31.4182V26.2367L31.5679 26.2365L34.3948 20.7922H41.7709Z" fill="white"/>
</g>
<defs>
<clipPath id="clip0_13_5172">
<rect width="40" height="40" fill="white" transform="translate(8.5 8)"/>
</clipPath>
</defs>
</svg>
